<svg xmlns="http://www.w3.org/2000/svg" width="70" height="70" viewBox="0 0 512 512" version="1.1">
	<path d="M 207.714 12.619 C 206.410 13.924, 206.967 31.524, 208.473 36.596 C 210.135 42.194, 215.094 47.664, 219.594 48.864 C 222.468 49.631, 222.511 49.750, 223.500 59.785 C 224.050 65.365, 225.011 70.435, 225.635 71.050 C 226.259 71.666, 227.834 72.019, 229.135 71.835 C 231.461 71.505, 231.500 71.317, 231.500 60.282 L 231.500 49.064 235.271 45.942 C 241.865 40.483, 242.834 36.840, 242.236 19.750 C 242 13.005, 241.998 13, 239.067 13 C 235.842 13, 234.379 15.468, 235.503 19.010 C 235.854 20.116, 235.819 23.602, 235.425 26.756 C 234.061 37.673, 224.502 42.950, 218.662 36.010 C 216.142 33.016, 215.296 29.022, 214.741 17.500 C 214.511 12.725, 214.363 12.487, 211.464 12.203 C 209.794 12.039, 208.107 12.227, 207.714 12.619 M 260.450 13.270 C 260.182 13.968, 258.187 26.681, 256.018 41.520 L 252.072 68.500 254.147 70.250 C 255.288 71.213, 257.026 72, 258.008 72 C 260.009 72, 260.299 70.670, 264.158 43.750 C 265.400 35.087, 266.660 28.005, 266.958 28.012 C 267.256 28.018, 270.360 37.356, 273.855 48.762 C 277.351 60.168, 280.589 70.487, 281.052 71.694 C 281.943 74.015, 288.720 76.705, 291.240 75.738 C 292.235 75.356, 293.677 67.858, 296.316 49.352 C 300.837 17.639, 300.843 17.429, 297.289 16.536 C 295.395 16.061, 294.240 16.319, 293.456 17.391 C 292.839 18.235, 291.051 27.484, 289.482 37.944 C 287.914 48.405, 286.480 56.814, 286.297 56.630 C 286.114 56.447, 282.795 47.343, 278.922 36.398 C 275.050 25.454, 271.222 15.488, 270.417 14.250 C 269.301 12.534, 268.002 12, 264.946 12 C 262.628 12, 260.732 12.536, 260.450 13.270 M 178.298 19.990 C 164.535 24.756, 160.969 27.905, 160.283 35.902 C 159.532 44.654, 165.434 49.671, 181.691 54.102 C 191.488 56.773, 192.834 57.490, 193.573 60.436 C 194.935 65.862, 190.787 68.905, 177.961 71.892 C 173.478 72.936, 169.415 74.185, 168.931 74.669 C 167.647 75.953, 169.047 83.081, 170.708 83.718 C 172.796 84.519, 184.396 81.142, 191.150 77.767 C 201.575 72.558, 205.112 64.995, 201.049 56.602 C 198.373 51.073, 195.088 48.970, 183.758 45.535 C 166.810 40.396, 163.796 32.402, 177.500 28.940 C 179.700 28.384, 183.412 27.233, 185.750 26.382 C 189.328 25.079, 190 24.405, 190 22.117 C 190 19.634, 188.395 16.891, 187.050 17.075 C 186.748 17.117, 182.809 18.428, 178.298 19.990 M 324.500 33.383 C 318.174 36.374, 314.845 39.936, 311.307 47.500 C 308.913 52.618, 308.503 54.750, 308.522 62 C 308.540 68.842, 308.980 71.324, 310.778 74.722 C 314.256 81.296, 318.641 85.677, 324.713 88.648 L 330.289 91.376 332.639 88.438 C 333.932 86.822, 334.991 85.275, 334.993 85 C 334.995 84.725, 333.018 83.250, 330.601 81.723 C 321.185 75.775, 315.331 66.614, 316.191 59.174 C 316.601 55.625, 318.457 55.936, 330.653 61.596 C 335.944 64.052, 340.379 65.935, 340.509 65.780 C 340.639 65.626, 341.466 64.083, 342.346 62.351 C 343.594 59.896, 343.678 58.984, 342.724 58.216 C 341.322 57.087, 322.621 50, 321.044 50 C 320.470 50, 320 49.641, 320 49.203 C 320 48.082, 327.055 41.464, 329.684 40.118 C 332.723 38.563, 340.997 38.783, 344 40.500 C 347.539 42.523, 348.521 42.347, 349.839 39.453 C 351.599 35.592, 351.344 35.058, 346.750 32.973 C 340.568 30.167, 330.928 30.345, 324.500 33.383 M 116.852 45.016 C 114.846 46.075, 111.587 48.832, 109.610 51.142 C 96.256 66.744, 101.375 91.631, 119.351 98.496 C 127.878 101.753, 141.876 98.923, 149.890 92.323 C 152.222 90.403, 152.237 90.291, 150.525 87.678 C 148.345 84.351, 147.641 84.353, 140.371 87.713 C 132.836 91.194, 124.466 91.477, 120.301 88.391 C 113.311 83.212, 110.106 74.571, 112.014 66.045 C 113.028 61.516, 114.250 59.525, 119.146 54.426 C 124.543 48.806, 124.968 48.045, 124.052 45.637 C 122.870 42.528, 121.744 42.431, 116.852 45.016 M 369.021 50.116 C 365.345 51.583, 363.255 53.749, 358.041 61.500 C 352.699 69.440, 339 92.734, 339 93.877 C 339 94.291, 340.540 95.364, 342.422 96.261 C 345.041 97.510, 346.066 97.613, 346.791 96.697 C 347.312 96.038, 351.680 88.300, 356.499 79.500 C 365.955 62.229, 368.807 58.421, 372.967 57.507 C 381.901 55.545, 388.473 67.756, 381.644 73.630 C 378.326 76.484, 373.567 76.715, 368.439 74.270 C 364.945 72.603, 364.758 72.610, 363.405 74.461 C 361.177 77.508, 361.637 78.397, 368 83.338 C 371.300 85.901, 374 88.688, 374 89.532 C 374 91.239, 369.997 99.460, 366.364 105.216 C 365.064 107.275, 364 109.322, 364 109.765 C 364 110.207, 365.413 111.404, 367.140 112.424 C 370.270 114.273, 370.287 114.271, 372.121 111.890 C 373.133 110.575, 376.099 105.303, 378.713 100.174 L 383.465 90.849 381.316 86.924 C 380.133 84.766, 379.623 83, 380.182 83 C 383.213 83, 388.293 79.346, 390.050 75.902 C 392.362 71.371, 392.631 63.114, 390.595 59.200 C 386.556 51.438, 376.412 47.167, 369.021 50.116 M 80.088 76.394 C 77.246 79.818, 81.087 85.696, 84.683 83.428 C 87.562 81.612, 88.618 79.205, 87.394 77.250 C 85.973 74.981, 81.678 74.478, 80.088 76.394 M 62.923 83.861 L 60.544 85.788 62.943 91.644 C 64.262 94.865, 68.640 103.998, 72.671 111.940 C 76.702 119.881, 80 127.202, 80 128.207 C 80 129.894, 79.636 129.849, 75.250 127.619 C 72.638 126.292, 63.837 121.334, 55.692 116.603 C 47.548 111.871, 40.228 108, 39.426 108 C 37.539 108, 34.283 114.689, 35.560 115.944 C 37.680 118.027, 82.878 141, 84.857 141 C 87.746 141, 91 137.568, 91 134.520 C 91 130.141, 68.788 82.945, 66.401 82.253 C 65.797 82.078, 64.232 82.801, 62.923 83.861 M 88.383 86.347 L 85.536 88.796 88.018 92.243 C 100.538 109.627, 108.732 119.923, 109.894 119.731 C 110.661 119.604, 112.164 118.326, 113.234 116.891 L 115.180 114.282 104.710 99.391 C 98.952 91.201, 93.563 84.364, 92.736 84.199 C 91.908 84.033, 89.949 85, 88.383 86.347 M 406.588 88.587 C 399.912 90.718, 391.836 98.966, 389.480 106.060 C 387.331 112.531, 387.797 125.874, 390.343 130.737 C 397.188 143.810, 413.648 150.522, 425.579 145.104 C 429.972 143.108, 434 138.772, 434 136.037 C 434 133.270, 427.954 124.979, 423.677 121.881 C 415.749 116.138, 413.602 119.236, 419.468 127.953 C 423.993 134.676, 424.156 136.100, 420.601 137.836 C 414.982 140.581, 403.517 136.329, 398.592 129.673 C 396.847 127.316, 396.500 125.406, 396.500 118.173 C 396.500 110.590, 396.833 108.933, 399.152 104.989 C 404.065 96.632, 415.475 93.284, 424.481 97.558 C 429.541 99.959, 434.810 106.539, 436.597 112.687 C 439.641 123.157, 445.009 125.456, 444.990 116.281 C 444.971 106.989, 436.139 93.756, 427.343 89.840 C 421.439 87.211, 412.576 86.676, 406.588 88.587 M 241.881 92.503 C 236.237 95.571, 234.594 104.826, 238.782 109.966 C 241.238 112.981, 247.627 114.967, 251.394 113.887 C 261.188 111.078, 262.913 97.109, 254.033 92.517 C 250.393 90.635, 245.330 90.629, 241.881 92.503 M 310.475 103.029 C 308.811 103.531, 305.924 105.515, 304.060 107.438 C 299.650 111.988, 298.713 119.627, 301.935 124.759 C 310.331 138.129, 331.243 131.626, 329.665 116.136 C 328.700 106.672, 319.421 100.335, 310.475 103.029 M 175.195 111.490 C 172.665 113.618, 172 114.946, 172 117.866 C 172 124.817, 178.106 129.441, 184.040 126.984 C 192.954 123.291, 191.478 110.883, 181.945 109.367 C 179.055 108.907, 177.791 109.305, 175.195 111.490 M 110.478 129.851 C 85.165 141.826, 85.392 176.610, 110.864 189.174 C 114.647 191.039, 117.156 191.462, 124.500 191.471 C 132.332 191.480, 134.149 191.137, 138.500 188.825 C 144.976 185.384, 151.313 178.791, 154.192 172.500 C 156.001 168.548, 156.483 165.719, 156.490 159 C 156.499 151.204, 156.216 149.976, 153.066 144.166 C 146.903 132.799, 136.995 126.999, 123.739 127.001 C 117.858 127.001, 115.370 127.536, 110.478 129.851 M 29.200 130.200 C 27.141 132.259, 27.826 135.840, 30.630 137.677 C 33.202 139.363, 33.311 139.340, 35.630 136.644 C 38.423 133.396, 38.520 132.663, 36.429 130.571 C 34.564 128.706, 30.883 128.517, 29.200 130.200 M 39.487 139.014 C 36.993 141.616, 36.797 142.209, 38.050 143.352 C 39.858 145.004, 63.888 165.060, 66.188 166.837 C 67.657 167.973, 68.085 167.736, 69.498 165.004 C 70.391 163.278, 70.981 161.289, 70.810 160.583 C 70.418 158.963, 44.872 136.034, 43.437 136.015 C 42.852 136.007, 41.075 137.356, 39.487 139.014 M 458.564 139.273 C 446.357 145.894, 440.256 154.492, 441.637 163.129 L 442.229 166.834 433.615 172.567 C 428.877 175.720, 425 178.858, 425 179.539 C 425 180.221, 425.788 181.750, 426.750 182.937 L 428.500 185.096 437.869 179.420 C 447.215 173.757, 447.247 173.747, 450.518 175.307 C 458.847 179.279, 463.867 178.218, 477.184 169.671 C 484.069 165.252, 484.316 164.897, 482.404 162.167 L 480.892 160.008 473.611 164.004 C 465.691 168.350, 460.913 169.040, 456.072 166.537 C 452.923 164.909, 452 163.199, 452 158.995 C 452 155.123, 455.757 150.957, 463.779 145.935 C 467.475 143.621, 470.688 141.563, 470.918 141.362 C 471.148 141.161, 470.735 139.873, 469.999 138.498 C 468.230 135.193, 465.780 135.359, 458.564 139.273 M 365.500 139.573 C 356.749 144.124, 352.561 152.942, 354.945 161.795 C 358.066 173.385, 370.840 179.161, 381.711 173.898 C 392.651 168.602, 395.743 155.042, 388.268 145.141 C 383.479 138.798, 372.264 136.055, 365.500 139.573 M 14.291 144.250 C 9.914 149.037, 8.587 153.136, 8.545 162 C 8.514 168.629, 8.976 171.518, 10.640 175.122 C 17.248 189.431, 32.932 196.526, 45.757 191.009 C 51.213 188.662, 60.468 179.863, 63.357 174.276 C 64.936 171.224, 64.915 171.054, 62.775 169.555 C 59.288 167.112, 57.619 167.671, 54.011 172.485 C 49.129 179.001, 43.943 182.257, 37.612 182.782 C 31.257 183.309, 27.844 181.784, 22.741 176.136 C 16.738 169.490, 15.691 162.789, 19.114 152.901 C 20.788 148.063, 21 146.296, 20.135 144.397 C 18.769 141.399, 16.940 141.353, 14.291 144.250 M 239.444 143.886 C 230.458 147.968, 224.994 158.578, 227.086 167.887 C 228.852 175.749, 232.086 180.040, 238.804 183.437 C 251.452 189.832, 266.848 182.264, 269.871 168.165 C 273.559 150.971, 255.525 136.582, 239.444 143.886 M 193.168 157.146 C 180.759 163.288, 179.565 181.576, 191.053 189.537 C 195.694 192.753, 202.982 193.821, 208.303 192.065 C 213.050 190.498, 219.691 183.163, 220.561 178.526 C 223.644 162.094, 207.938 149.835, 193.168 157.146 M 290.746 169.250 C 286.647 172.381, 288.309 178.905, 293.593 180.431 C 296.638 181.310, 301 177.572, 301 174.082 C 301 169.052, 294.818 166.139, 290.746 169.250 M 156.168 186.146 C 150.348 189.027, 146.788 194.511, 146.707 200.723 C 146.508 216.010, 163.508 224.517, 174.670 214.716 C 184.750 205.867, 182.672 191.508, 170.500 185.890 C 165.244 183.464, 161.449 183.532, 156.168 186.146 M 74.462 196.366 C 63.974 201.249, 57.045 213.291, 58.356 224.356 C 60.056 238.708, 70.617 248.734, 85.135 249.776 C 90.710 250.176, 92.626 249.858, 97.135 247.786 C 104.566 244.370, 108.462 240.799, 111.474 234.644 C 116.878 223.598, 115.548 212.313, 107.808 203.519 C 101.999 196.920, 95.494 194.020, 86.500 194.020 C 81.254 194.020, 78.237 194.607, 74.462 196.366 M 328.635 196.073 C 325.115 198.841, 324.956 204.671, 328.314 207.826 C 335.808 214.865, 346.537 204.187, 339.548 196.646 C 336.543 193.404, 332.311 193.181, 328.635 196.073 M 240.400 200.400 C 234.465 206.335, 236.296 215.301, 244.079 218.415 C 249.079 220.415, 253.840 219.290, 256.915 215.381 C 261.299 209.807, 259.829 201.514, 253.915 198.456 C 248.952 195.889, 244.232 196.568, 240.400 200.400 M 401.204 201.075 C 385.726 208.929, 385.046 230.771, 399.999 239.750 C 414.587 248.510, 432.199 239.362, 433.691 222.250 C 434.124 217.280, 433.801 215.757, 431.303 211.017 C 427.025 202.900, 421.852 199.620, 412.687 199.213 C 406.857 198.955, 404.689 199.306, 401.204 201.075 M 273.062 203.827 C 269.387 205.798, 266 211.053, 266 214.784 C 266 221.379, 272.028 227, 279.102 227 C 283.299 227, 284.397 226.536, 287.467 223.467 C 290.536 220.397, 291 219.299, 291 215.102 C 291 209.425, 288.444 205.501, 283.364 203.379 C 279.005 201.557, 277.143 201.638, 273.062 203.827 M 213.971 205.780 C 211.687 206.928, 210.089 208.726, 209.163 211.188 C 207.920 214.492, 207.970 215.273, 209.638 218.688 C 212.712 224.980, 220.433 226.294, 225.364 221.364 C 228.525 218.202, 229.202 214.278, 227.288 210.215 C 224.791 204.920, 219.312 203.095, 213.971 205.780 M 298.500 220.167 C 291.823 223.860, 289.072 230.171, 291.137 237.062 C 294.626 248.708, 310.781 250.967, 317.050 240.686 C 321.044 234.135, 318.934 225.233, 312.359 220.898 C 309.158 218.788, 301.704 218.395, 298.500 220.167 M 186.800 228.046 C 184.166 230.680, 183.834 231.594, 184.346 234.796 C 185.091 239.445, 188.137 242, 192.936 242 C 197.575 242, 201 238.715, 201 234.267 C 201 229.794, 200.124 228.116, 196.928 226.463 C 192.698 224.276, 190.176 224.670, 186.800 228.046 M 130.241 229.995 C 117.223 237.931, 122.793 257.984, 138.018 257.996 C 146.481 258.003, 153.004 251.385, 152.996 242.800 C 152.986 231.360, 139.993 224.049, 130.241 229.995 M 352.923 235.923 C 346.482 242.365, 350.889 253, 360 253 C 365.261 253, 370 248.794, 370 244.124 C 370 234.366, 359.515 229.331, 352.923 235.923 M 169.944 254.844 C 165.231 258.660, 168.314 267, 174.436 267 C 178.844 267, 182.657 260.028, 180.235 256.400 C 179.265 254.948, 175.507 253, 173.677 253 C 172.876 253, 171.197 253.830, 169.944 254.844 M 319.200 257.200 C 317.341 259.059, 317.782 262.813, 320 264 C 322.311 265.237, 325.403 263.999, 326.382 261.446 C 327.207 259.297, 327.224 259.367, 325.429 257.571 C 323.557 255.700, 320.861 255.539, 319.200 257.200 M 64 266.537 C 53.899 269.673, 47 279.428, 47 290.574 C 47 297.738, 48.719 302.472, 53.158 307.527 C 64.710 320.684, 86.042 318.363, 94.382 303.040 C 100.141 292.459, 98.531 281.436, 89.979 272.884 C 82.800 265.705, 73.778 263.500, 64 266.537 M 416.640 268.573 C 409.560 270.833, 402.608 278.102, 400.460 285.490 C 396.750 298.250, 403.095 311.381, 415.468 316.551 C 420.641 318.712, 430.514 318.414, 435.621 315.942 C 440.581 313.540, 446.574 307.264, 448.650 302.296 C 450.592 297.648, 450.542 288.232, 448.549 283.463 C 443.291 270.880, 429.531 264.458, 416.640 268.573 M 240.921 270.307 C 227.976 275.151, 222.675 288.647, 228.929 300.842 C 232.721 308.236, 239.291 312, 248.403 312 C 254.982 312, 258.557 310.765, 262.339 307.186 C 265.950 303.770, 267.582 300.593, 268.470 295.250 L 269.176 291 260.088 291 C 251.061 291, 251 291.017, 251 293.500 C 251 295.889, 251.267 296, 257 296 C 260.300 296, 262.998 296.337, 262.996 296.750 C 262.986 298.807, 258.715 304.096, 255.881 305.562 C 251.667 307.741, 242.949 307.093, 239.209 304.322 C 234.631 300.932, 232 296.162, 232 291.253 C 232 282.202, 237.397 276.053, 246.074 275.219 C 252.102 274.640, 254.647 275.271, 259.469 278.543 C 262.856 280.842, 263.461 280.968, 264.782 279.646 C 266.972 277.457, 265.848 275.779, 260.094 272.648 C 254.002 269.332, 246.104 268.368, 240.921 270.307 M 287.176 270.138 C 282.585 271.460, 275.729 278.599, 274.230 283.616 C 271.371 293.184, 274.560 303.344, 282.051 308.535 C 289.579 313.752, 300.593 313.165, 307.216 307.193 C 317.084 298.297, 317.622 284.589, 308.464 275.418 C 302.805 269.750, 295.131 267.846, 287.176 270.138 M 188.639 270.694 C 188.288 271.046, 188 280.258, 188 291.167 L 188 311 190.972 311 L 193.944 311 194.222 297.267 L 194.500 283.535 205.850 297.017 C 212.092 304.433, 217.830 310.645, 218.600 310.823 C 219.765 311.092, 220 307.697, 220 290.573 L 220 270 217.527 270 L 215.053 270 214.777 284.601 L 214.500 299.202 202.652 285.099 C 190.110 270.171, 189.643 269.691, 188.639 270.694 M 289.771 275.209 C 282.467 277.128, 277.159 286.471, 278.939 294.273 C 280.708 302.027, 286.390 306.991, 293.500 306.995 C 304.165 307.001, 311.633 297.047, 308.876 286.500 C 307.649 281.805, 302.863 276.419, 299.130 275.531 C 297.683 275.187, 295.825 274.753, 295 274.567 C 294.175 274.381, 291.822 274.670, 289.771 275.209 M 118.882 282.882 C 115.556 286.209, 115.001 287.390, 115.004 291.132 C 115.009 296.882, 117.712 301.115, 122.861 303.437 C 126.364 305.017, 127.611 305.133, 130.800 304.178 C 145.853 299.668, 142.844 279.017, 127.132 279.004 C 123.390 279.001, 122.209 279.556, 118.882 282.882 M 362.420 280.886 C 359.098 282.911, 356 288.355, 356 292.167 C 356 298.455, 362.929 305, 369.587 305 C 373.301 305, 378.977 301.417, 380.721 297.970 C 386.445 286.658, 373.212 274.305, 362.420 280.886 M 165.571 287.571 C 163.342 289.801, 163.553 294.690, 165.934 295.965 C 169.077 297.647, 171.849 297.160, 173.504 294.635 C 177.026 289.259, 170.075 283.068, 165.571 287.571 M 323.452 289.433 C 321.615 292.237, 322.643 295.203, 326.090 297.048 C 328.566 298.374, 332.438 296.256, 333.256 293.129 C 334.679 287.686, 326.594 284.638, 323.452 289.433 M 318.039 319.189 C 316.918 320.392, 316 322.438, 316 323.734 C 316 326.653, 320.187 331, 323 331 C 324.150 331, 326.195 329.895, 327.545 328.545 C 328.895 327.195, 330 325.150, 330 324 C 330 321.126, 325.629 317, 322.584 317 C 321.206 317, 319.160 317.985, 318.039 319.189 M 171.447 321.059 C 169.440 323.276, 170.055 325.371, 173.317 327.428 C 177.173 329.860, 181.103 323.011, 177.404 320.306 C 174.932 318.499, 173.613 318.665, 171.447 321.059 M 351 328.181 C 341.539 334.557, 341.958 348.236, 351.783 353.758 C 358.955 357.789, 367.074 355.822, 371.839 348.898 C 373.795 346.055, 374.111 344.553, 373.771 339.699 C 373.416 334.624, 372.911 333.444, 369.733 330.267 C 366.556 327.089, 365.376 326.584, 360.301 326.229 C 355.448 325.889, 353.928 326.208, 351 328.181 M 133.388 330.980 C 127.146 333.502, 125.178 341.681, 129.560 346.889 C 135.736 354.229, 146.888 350.274, 146.968 340.715 C 147.008 335.960, 144.764 332.462, 140.785 331.075 C 137.211 329.829, 136.267 329.817, 133.388 330.980 M 405.723 334.134 C 392.510 336.092, 382.615 348.042, 382.648 362 C 382.684 377.096, 393.720 388.669, 409.135 389.776 C 414.713 390.176, 416.631 389.858, 421.180 387.775 C 433.087 382.324, 438.468 374.311, 438.488 362 C 438.497 356.229, 437.982 353.450, 436.255 349.945 C 430.511 338.289, 418.758 332.203, 405.723 334.134 M 185 338.619 C 176.121 344.181, 175.830 357.642, 184.474 362.984 C 186.628 364.315, 189.468 365, 192.833 365 C 197.089 365, 198.504 364.497, 201.404 361.950 C 211.932 352.706, 205.856 336.940, 191.800 337.027 C 189.435 337.041, 186.375 337.758, 185 338.619 M 78.032 341.251 C 72.982 342.945, 65.425 350.677, 64.105 355.500 C 61.627 364.561, 63.718 372.618, 70.128 378.699 C 79.291 387.393, 91.932 387.163, 100.956 378.139 C 105.702 373.393, 108.029 367.816, 107.978 361.307 C 107.951 357.817, 104.600 350.277, 101.688 347.153 C 96.458 341.542, 85.393 338.781, 78.032 341.251 M 301.357 342.016 C 298.440 343.160, 296 346.873, 296 350.167 C 296 353.773, 299.722 357.853, 303.710 358.618 C 306.394 359.133, 307.418 358.736, 309.960 356.194 C 313.682 352.472, 313.976 348.177, 310.750 344.655 C 308.171 341.839, 304.464 340.798, 301.357 342.016 M 211.763 358.565 C 202.939 363.353, 204.774 377.482, 214.667 380.930 C 218.240 382.174, 219.267 382.170, 222.619 380.894 C 232.442 377.155, 233.786 363.334, 224.810 358.353 C 221.708 356.631, 215.130 356.738, 211.763 358.565 M 276 359.683 C 275.175 359.995, 273.262 361.403, 271.750 362.812 C 265.519 368.617, 270.149 379, 278.969 379 C 288.298 379, 292.387 367.254, 284.937 361.856 C 282.132 359.824, 278.175 358.861, 276 359.683 M 244.378 365.437 C 240.054 367.319, 238 370.664, 238 375.823 C 238 379.467, 238.569 380.769, 241.400 383.600 C 244.187 386.387, 245.557 387, 249 387 C 252.443 387, 253.813 386.387, 256.600 383.600 C 259.431 380.769, 260 379.467, 260 375.823 C 260 370.571, 257.918 367.282, 253.401 365.394 C 249.340 363.697, 248.365 363.702, 244.378 365.437 M 326.481 366.394 C 322.260 368.233, 317.223 374.293, 316.438 378.479 C 313.756 392.775, 328.146 403.773, 341.339 397.510 C 348.308 394.202, 352.402 384.777, 350.013 377.540 C 346.668 367.404, 335.885 362.296, 326.481 366.394 M 161 373.781 C 157.915 374.755, 155 378.379, 155 381.240 C 155 385.289, 156.431 387.521, 159.962 388.984 C 163.518 390.457, 168.408 388.974, 170.038 385.929 C 171.401 383.381, 171.175 378.814, 169.580 376.712 C 168.053 374.699, 163.270 373.065, 161 373.781 M 287.500 392.417 C 281.733 394.992, 275.991 403.383, 276.006 409.218 C 276.041 423.586, 290.928 433.086, 303.711 426.898 C 314.651 421.602, 317.743 408.042, 310.268 398.141 C 305.560 391.905, 294.741 389.185, 287.500 392.417 M 361.233 393.620 C 355.156 395.839, 346.631 404.011, 343.307 410.804 C 341.003 415.514, 340.532 417.775, 340.557 423.994 C 340.677 452.705, 373.645 467.510, 394.901 448.399 C 402.306 441.741, 405.471 434.596, 405.487 424.505 C 405.498 417.919, 405.031 415.499, 402.852 410.852 C 399.624 403.968, 393.991 398.154, 387.423 394.928 C 381.189 391.866, 367.862 391.201, 361.233 393.620 M 242.764 398.996 C 227.582 403.567, 222.070 421.651, 232.008 434.283 C 233.212 435.814, 236.388 438.176, 239.065 439.533 C 255.884 448.056, 274.956 432.405, 270.033 414.122 C 269.248 411.206, 267.311 408.222, 264.180 405.104 C 257.847 398.798, 250.438 396.685, 242.764 398.996 M 198.250 404.522 C 195.422 406.522, 195.189 411.956, 197.829 414.345 C 201.994 418.115, 208 415.132, 208 409.294 C 208 404.318, 202.408 401.581, 198.250 404.522 M 113.826 410.198 C 108.945 413.256, 106.318 416.781, 104.862 422.226 C 101.772 433.778, 111.698 446, 124.170 446 C 125.510 446, 128.952 444.831, 131.818 443.403 C 144.471 437.098, 145.915 420.722, 134.623 411.583 C 131.449 409.013, 129.881 408.509, 124.194 408.228 C 118.581 407.950, 116.907 408.268, 113.826 410.198 M 176.500 452.517 C 174.300 453.316, 172.404 453.977, 172.286 453.985 C 172.168 453.993, 170.931 455.679, 169.536 457.732 C 165.127 464.220, 166.638 473.996, 172.738 478.451 C 176.755 481.385, 185.587 481.683, 189.818 479.028 C 194.218 476.268, 197.434 469.129, 196.506 464.181 C 194.742 454.778, 185.351 449.303, 176.500 452.517 M 309.323 459.250 C 306.372 462.529, 305.806 464.881, 307.056 468.670 C 309.192 475.143, 317.196 476.958, 322.077 472.077 C 326.190 467.964, 325.752 461.864, 321.087 458.282 C 318.322 456.159, 311.608 456.712, 309.323 459.250 M 245.774 469.788 C 242.447 470.203, 237.704 475.010, 236.932 478.749 C 235.385 486.237, 240.959 493, 248.677 493 C 252.488 493, 253.736 492.464, 256.600 489.600 C 259.478 486.722, 260 485.496, 260 481.616 C 260 474.109, 253.625 468.809, 245.774 469.788" stroke="none" fill="#ffffff" fill-rule="evenodd"/>
</svg>